<mxfile host="app.diagrams.net" modified="2021-07-22T03:10:58.370Z" agent="5.0 (Windows NT 10.0; WOW64) AppleWebKit/537.36 (KHTML, like Gecko) Chrome/83.0.4103.61 Safari/537.36" etag="GE858BUrqMpBcOrO9JdC" version="14.9.1" type="github" pages="2">
  <diagram id="zSv5-vx9SNb6p68CBVvS" name="第 1 页">
    <mxGraphModel dx="208" dy="-647" grid="1" gridSize="10" guides="1" tooltips="1" connect="1" arrows="1" fold="1" page="0" pageScale="1" pageWidth="827" pageHeight="1169" math="0" shadow="0">
      <root>
        <mxCell id="0" />
        <mxCell id="1" parent="0" />
        <mxCell id="WhhTYZKKSws41wjF8HKO-1" style="edgeStyle=none;rounded=1;sketch=0;orthogonalLoop=1;jettySize=auto;html=1;exitX=0.5;exitY=1;exitDx=0;exitDy=0;entryX=0.5;entryY=0;entryDx=0;entryDy=0;fontColor=#143642;strokeColor=#A8201A;fillColor=#FAE5C7;" edge="1" parent="1" source="WhhTYZKKSws41wjF8HKO-2" target="WhhTYZKKSws41wjF8HKO-14">
          <mxGeometry relative="1" as="geometry" />
        </mxCell>
        <mxCell id="WhhTYZKKSws41wjF8HKO-2" value="10" style="ellipse;whiteSpace=wrap;html=1;aspect=fixed;fillColor=#f5f5f5;strokeColor=#666666;gradientColor=#b3b3b3;" vertex="1" parent="1">
          <mxGeometry x="960" y="1480" width="40" height="40" as="geometry" />
        </mxCell>
        <mxCell id="WhhTYZKKSws41wjF8HKO-3" value="7" style="ellipse;whiteSpace=wrap;html=1;aspect=fixed;fillColor=#f8cecc;strokeColor=#b85450;gradientColor=#ea6b66;" vertex="1" parent="1">
          <mxGeometry x="880" y="1720" width="40" height="40" as="geometry" />
        </mxCell>
        <mxCell id="WhhTYZKKSws41wjF8HKO-4" value="3" style="ellipse;whiteSpace=wrap;html=1;aspect=fixed;fillColor=#f5f5f5;strokeColor=#666666;gradientColor=#b3b3b3;" vertex="1" parent="1">
          <mxGeometry x="840" y="1640" width="40" height="40" as="geometry" />
        </mxCell>
        <mxCell id="WhhTYZKKSws41wjF8HKO-5" value="9" style="ellipse;whiteSpace=wrap;html=1;aspect=fixed;fillColor=#f8cecc;strokeColor=#b85450;gradientColor=#ea6b66;" vertex="1" parent="1">
          <mxGeometry x="960" y="1720" width="40" height="40" as="geometry" />
        </mxCell>
        <mxCell id="WhhTYZKKSws41wjF8HKO-6" value="8" style="ellipse;whiteSpace=wrap;html=1;aspect=fixed;fillColor=#f5f5f5;strokeColor=#666666;gradientColor=#b3b3b3;" vertex="1" parent="1">
          <mxGeometry x="920" y="1640" width="40" height="40" as="geometry" />
        </mxCell>
        <mxCell id="WhhTYZKKSws41wjF8HKO-7" style="edgeStyle=none;rounded=1;sketch=0;orthogonalLoop=1;jettySize=auto;html=1;exitX=0.5;exitY=1;exitDx=0;exitDy=0;entryX=0.5;entryY=0;entryDx=0;entryDy=0;fontColor=#143642;strokeColor=#A8201A;fillColor=#FAE5C7;" edge="1" parent="1" source="WhhTYZKKSws41wjF8HKO-9" target="WhhTYZKKSws41wjF8HKO-4">
          <mxGeometry x="800" y="1480" as="geometry" />
        </mxCell>
        <mxCell id="WhhTYZKKSws41wjF8HKO-8" style="edgeStyle=none;rounded=1;sketch=0;orthogonalLoop=1;jettySize=auto;html=1;exitX=0.5;exitY=1;exitDx=0;exitDy=0;entryX=0.5;entryY=0;entryDx=0;entryDy=0;fontColor=#143642;strokeColor=#A8201A;fillColor=#FAE5C7;" edge="1" parent="1" source="WhhTYZKKSws41wjF8HKO-9" target="WhhTYZKKSws41wjF8HKO-6">
          <mxGeometry x="800" y="1480" as="geometry" />
        </mxCell>
        <mxCell id="WhhTYZKKSws41wjF8HKO-9" value="5" style="ellipse;whiteSpace=wrap;html=1;aspect=fixed;fillColor=#f8cecc;strokeColor=#b85450;gradientColor=#ea6b66;" vertex="1" parent="1">
          <mxGeometry x="880" y="1560" width="40" height="40" as="geometry" />
        </mxCell>
        <mxCell id="WhhTYZKKSws41wjF8HKO-10" style="rounded=1;sketch=0;orthogonalLoop=1;jettySize=auto;html=1;exitX=0.5;exitY=1;exitDx=0;exitDy=0;entryX=0.5;entryY=0;entryDx=0;entryDy=0;fontColor=#143642;strokeColor=#A8201A;fillColor=#FAE5C7;" edge="1" parent="1" source="WhhTYZKKSws41wjF8HKO-2" target="WhhTYZKKSws41wjF8HKO-9">
          <mxGeometry x="800" y="1480" as="geometry" />
        </mxCell>
        <mxCell id="WhhTYZKKSws41wjF8HKO-11" value="16" style="ellipse;whiteSpace=wrap;html=1;aspect=fixed;fillColor=#f8cecc;strokeColor=#b85450;gradientColor=#ea6b66;" vertex="1" parent="1">
          <mxGeometry x="1120" y="1720" width="40" height="40" as="geometry" />
        </mxCell>
        <mxCell id="WhhTYZKKSws41wjF8HKO-12" style="edgeStyle=none;rounded=1;sketch=0;orthogonalLoop=1;jettySize=auto;html=1;exitX=0.5;exitY=1;exitDx=0;exitDy=0;entryX=0.5;entryY=0;entryDx=0;entryDy=0;fontColor=#143642;strokeColor=#A8201A;fillColor=#FAE5C7;" edge="1" parent="1" source="WhhTYZKKSws41wjF8HKO-14" target="WhhTYZKKSws41wjF8HKO-15">
          <mxGeometry relative="1" as="geometry" />
        </mxCell>
        <mxCell id="WhhTYZKKSws41wjF8HKO-13" style="edgeStyle=none;rounded=1;sketch=0;orthogonalLoop=1;jettySize=auto;html=1;exitX=0.5;exitY=1;exitDx=0;exitDy=0;entryX=0.5;entryY=0;entryDx=0;entryDy=0;fontColor=#143642;strokeColor=#A8201A;fillColor=#FAE5C7;" edge="1" parent="1" source="WhhTYZKKSws41wjF8HKO-14" target="WhhTYZKKSws41wjF8HKO-31">
          <mxGeometry relative="1" as="geometry" />
        </mxCell>
        <mxCell id="WhhTYZKKSws41wjF8HKO-14" value="13" style="ellipse;whiteSpace=wrap;html=1;aspect=fixed;gradientColor=#ea6b66;fillColor=#f8cecc;strokeColor=#b85450;" vertex="1" parent="1">
          <mxGeometry x="1040" y="1560" width="40" height="40" as="geometry" />
        </mxCell>
        <mxCell id="WhhTYZKKSws41wjF8HKO-15" value="11" style="ellipse;whiteSpace=wrap;html=1;aspect=fixed;fillColor=#f5f5f5;strokeColor=#666666;gradientColor=#b3b3b3;" vertex="1" parent="1">
          <mxGeometry x="1000" y="1640" width="40" height="40" as="geometry" />
        </mxCell>
        <mxCell id="WhhTYZKKSws41wjF8HKO-16" value="10" style="ellipse;whiteSpace=wrap;html=1;aspect=fixed;fillColor=#f5f5f5;strokeColor=#666666;gradientColor=#b3b3b3;" vertex="1" parent="1">
          <mxGeometry x="960" y="1480" width="40" height="40" as="geometry" />
        </mxCell>
        <mxCell id="WhhTYZKKSws41wjF8HKO-17" value="5" style="ellipse;whiteSpace=wrap;html=1;aspect=fixed;fillColor=#f8cecc;strokeColor=#b85450;gradientColor=#ea6b66;" vertex="1" parent="1">
          <mxGeometry x="880" y="1560" width="40" height="40" as="geometry" />
        </mxCell>
        <mxCell id="WhhTYZKKSws41wjF8HKO-18" value="3" style="ellipse;whiteSpace=wrap;html=1;aspect=fixed;fillColor=#f5f5f5;strokeColor=#666666;gradientColor=#b3b3b3;" vertex="1" parent="1">
          <mxGeometry x="840" y="1640" width="40" height="40" as="geometry" />
        </mxCell>
        <mxCell id="WhhTYZKKSws41wjF8HKO-19" value="8" style="ellipse;whiteSpace=wrap;html=1;aspect=fixed;fillColor=#f5f5f5;strokeColor=#666666;gradientColor=#b3b3b3;" vertex="1" parent="1">
          <mxGeometry x="920" y="1640" width="40" height="40" as="geometry" />
        </mxCell>
        <mxCell id="WhhTYZKKSws41wjF8HKO-20" value="9" style="ellipse;whiteSpace=wrap;html=1;aspect=fixed;fillColor=#f8cecc;strokeColor=#b85450;gradientColor=#ea6b66;" vertex="1" parent="1">
          <mxGeometry x="960" y="1720" width="40" height="40" as="geometry" />
        </mxCell>
        <mxCell id="WhhTYZKKSws41wjF8HKO-21" value="10" style="ellipse;whiteSpace=wrap;html=1;aspect=fixed;fillColor=#f5f5f5;strokeColor=#666666;gradientColor=#b3b3b3;" vertex="1" parent="1">
          <mxGeometry x="960" y="1480" width="40" height="40" as="geometry" />
        </mxCell>
        <mxCell id="WhhTYZKKSws41wjF8HKO-22" value="5" style="ellipse;whiteSpace=wrap;html=1;aspect=fixed;fillColor=#f8cecc;strokeColor=#b85450;gradientColor=#ea6b66;" vertex="1" parent="1">
          <mxGeometry x="880" y="1560" width="40" height="40" as="geometry" />
        </mxCell>
        <mxCell id="WhhTYZKKSws41wjF8HKO-23" value="3" style="ellipse;whiteSpace=wrap;html=1;aspect=fixed;fillColor=#f5f5f5;strokeColor=#666666;gradientColor=#b3b3b3;" vertex="1" parent="1">
          <mxGeometry x="840" y="1640" width="40" height="40" as="geometry" />
        </mxCell>
        <mxCell id="WhhTYZKKSws41wjF8HKO-24" style="edgeStyle=none;rounded=0;orthogonalLoop=1;jettySize=auto;html=1;exitX=0.5;exitY=1;exitDx=0;exitDy=0;entryX=0.5;entryY=0;entryDx=0;entryDy=0;strokeColor=#A8201A;" edge="1" parent="1" source="WhhTYZKKSws41wjF8HKO-26" target="WhhTYZKKSws41wjF8HKO-3">
          <mxGeometry relative="1" as="geometry" />
        </mxCell>
        <mxCell id="WhhTYZKKSws41wjF8HKO-25" style="edgeStyle=none;rounded=0;orthogonalLoop=1;jettySize=auto;html=1;exitX=0.5;exitY=1;exitDx=0;exitDy=0;entryX=0.5;entryY=0;entryDx=0;entryDy=0;strokeColor=#A8201A;" edge="1" parent="1" source="WhhTYZKKSws41wjF8HKO-26" target="WhhTYZKKSws41wjF8HKO-27">
          <mxGeometry relative="1" as="geometry" />
        </mxCell>
        <mxCell id="WhhTYZKKSws41wjF8HKO-26" value="8" style="ellipse;whiteSpace=wrap;html=1;aspect=fixed;fillColor=#f5f5f5;strokeColor=#666666;gradientColor=#b3b3b3;" vertex="1" parent="1">
          <mxGeometry x="920" y="1640" width="40" height="40" as="geometry" />
        </mxCell>
        <mxCell id="WhhTYZKKSws41wjF8HKO-27" value="9" style="ellipse;whiteSpace=wrap;html=1;aspect=fixed;fillColor=#f8cecc;strokeColor=#b85450;gradientColor=#ea6b66;" vertex="1" parent="1">
          <mxGeometry x="960" y="1720" width="40" height="40" as="geometry" />
        </mxCell>
        <mxCell id="WhhTYZKKSws41wjF8HKO-28" value="14" style="ellipse;whiteSpace=wrap;html=1;aspect=fixed;fillColor=#f8cecc;strokeColor=#b85450;gradientColor=#ea6b66;" vertex="1" parent="1">
          <mxGeometry x="1040" y="1720" width="40" height="40" as="geometry" />
        </mxCell>
        <mxCell id="WhhTYZKKSws41wjF8HKO-29" style="edgeStyle=none;rounded=1;sketch=0;orthogonalLoop=1;jettySize=auto;html=1;exitX=0.5;exitY=1;exitDx=0;exitDy=0;entryX=0.5;entryY=0;entryDx=0;entryDy=0;fontColor=#143642;strokeColor=#A8201A;fillColor=#FAE5C7;" edge="1" parent="1" source="WhhTYZKKSws41wjF8HKO-31" target="WhhTYZKKSws41wjF8HKO-28">
          <mxGeometry relative="1" as="geometry" />
        </mxCell>
        <mxCell id="WhhTYZKKSws41wjF8HKO-30" style="edgeStyle=none;rounded=1;sketch=0;orthogonalLoop=1;jettySize=auto;html=1;exitX=0.5;exitY=1;exitDx=0;exitDy=0;entryX=0.5;entryY=0;entryDx=0;entryDy=0;fontColor=#143642;strokeColor=#A8201A;fillColor=#FAE5C7;" edge="1" parent="1" source="WhhTYZKKSws41wjF8HKO-31" target="WhhTYZKKSws41wjF8HKO-11">
          <mxGeometry relative="1" as="geometry" />
        </mxCell>
        <mxCell id="WhhTYZKKSws41wjF8HKO-31" value="15" style="ellipse;whiteSpace=wrap;html=1;aspect=fixed;fillColor=#f5f5f5;strokeColor=#666666;gradientColor=#b3b3b3;" vertex="1" parent="1">
          <mxGeometry x="1080" y="1640" width="40" height="40" as="geometry" />
        </mxCell>
        <mxCell id="xgy5c-ASIfdpQhYK_QIA-7" value="&lt;font color=&quot;#143642&quot;&gt;&lt;b&gt;删除元素10，记为DE&lt;/b&gt;&lt;/font&gt;" style="shape=callout;whiteSpace=wrap;html=1;perimeter=calloutPerimeter;rounded=1;position2=1;" vertex="1" parent="1">
          <mxGeometry x="830" y="1430" width="120" height="80" as="geometry" />
        </mxCell>
        <mxCell id="xgy5c-ASIfdpQhYK_QIA-8" value="" style="html=1;shadow=0;dashed=0;align=center;verticalAlign=middle;shape=mxgraph.arrows2.arrow;dy=0.6;dx=40;notch=0;rounded=1;glass=0;sketch=0;fontColor=#143642;strokeColor=#0F8B8D;fillColor=#FAE5C7;" vertex="1" parent="1">
          <mxGeometry x="1140" y="1590" width="70" height="20" as="geometry" />
        </mxCell>
        <mxCell id="xgy5c-ASIfdpQhYK_QIA-9" style="edgeStyle=none;rounded=1;sketch=0;orthogonalLoop=1;jettySize=auto;html=1;exitX=0.5;exitY=1;exitDx=0;exitDy=0;entryX=0.5;entryY=0;entryDx=0;entryDy=0;fontColor=#143642;strokeColor=#A8201A;fillColor=#FAE5C7;" edge="1" parent="1" source="xgy5c-ASIfdpQhYK_QIA-10" target="xgy5c-ASIfdpQhYK_QIA-22">
          <mxGeometry relative="1" as="geometry" />
        </mxCell>
        <mxCell id="xgy5c-ASIfdpQhYK_QIA-10" value="10" style="ellipse;whiteSpace=wrap;html=1;aspect=fixed;fillColor=#f5f5f5;strokeColor=#666666;gradientColor=#b3b3b3;" vertex="1" parent="1">
          <mxGeometry x="1320" y="1480" width="40" height="40" as="geometry" />
        </mxCell>
        <mxCell id="xgy5c-ASIfdpQhYK_QIA-11" value="7" style="ellipse;whiteSpace=wrap;html=1;aspect=fixed;fillColor=#f8cecc;strokeColor=#b85450;gradientColor=#ea6b66;" vertex="1" parent="1">
          <mxGeometry x="1240" y="1720" width="40" height="40" as="geometry" />
        </mxCell>
        <mxCell id="xgy5c-ASIfdpQhYK_QIA-12" value="3" style="ellipse;whiteSpace=wrap;html=1;aspect=fixed;fillColor=#f5f5f5;strokeColor=#666666;gradientColor=#b3b3b3;" vertex="1" parent="1">
          <mxGeometry x="1200" y="1640" width="40" height="40" as="geometry" />
        </mxCell>
        <mxCell id="xgy5c-ASIfdpQhYK_QIA-13" value="9" style="ellipse;whiteSpace=wrap;html=1;aspect=fixed;fillColor=#f8cecc;strokeColor=#b85450;gradientColor=#ea6b66;" vertex="1" parent="1">
          <mxGeometry x="1320" y="1720" width="40" height="40" as="geometry" />
        </mxCell>
        <mxCell id="xgy5c-ASIfdpQhYK_QIA-14" value="8" style="ellipse;whiteSpace=wrap;html=1;aspect=fixed;fillColor=#f5f5f5;strokeColor=#666666;gradientColor=#b3b3b3;" vertex="1" parent="1">
          <mxGeometry x="1280" y="1640" width="40" height="40" as="geometry" />
        </mxCell>
        <mxCell id="xgy5c-ASIfdpQhYK_QIA-15" style="edgeStyle=none;rounded=1;sketch=0;orthogonalLoop=1;jettySize=auto;html=1;exitX=0.5;exitY=1;exitDx=0;exitDy=0;entryX=0.5;entryY=0;entryDx=0;entryDy=0;fontColor=#143642;strokeColor=#A8201A;fillColor=#FAE5C7;" edge="1" parent="1" source="xgy5c-ASIfdpQhYK_QIA-17" target="xgy5c-ASIfdpQhYK_QIA-12">
          <mxGeometry x="1160" y="1480" as="geometry" />
        </mxCell>
        <mxCell id="xgy5c-ASIfdpQhYK_QIA-16" style="edgeStyle=none;rounded=1;sketch=0;orthogonalLoop=1;jettySize=auto;html=1;exitX=0.5;exitY=1;exitDx=0;exitDy=0;entryX=0.5;entryY=0;entryDx=0;entryDy=0;fontColor=#143642;strokeColor=#A8201A;fillColor=#FAE5C7;" edge="1" parent="1" source="xgy5c-ASIfdpQhYK_QIA-17" target="xgy5c-ASIfdpQhYK_QIA-14">
          <mxGeometry x="1160" y="1480" as="geometry" />
        </mxCell>
        <mxCell id="xgy5c-ASIfdpQhYK_QIA-17" value="5" style="ellipse;whiteSpace=wrap;html=1;aspect=fixed;fillColor=#f8cecc;strokeColor=#b85450;gradientColor=#ea6b66;" vertex="1" parent="1">
          <mxGeometry x="1240" y="1560" width="40" height="40" as="geometry" />
        </mxCell>
        <mxCell id="xgy5c-ASIfdpQhYK_QIA-18" style="rounded=1;sketch=0;orthogonalLoop=1;jettySize=auto;html=1;exitX=0.5;exitY=1;exitDx=0;exitDy=0;entryX=0.5;entryY=0;entryDx=0;entryDy=0;fontColor=#143642;strokeColor=#A8201A;fillColor=#FAE5C7;" edge="1" parent="1" source="xgy5c-ASIfdpQhYK_QIA-10" target="xgy5c-ASIfdpQhYK_QIA-17">
          <mxGeometry x="1160" y="1480" as="geometry" />
        </mxCell>
        <mxCell id="xgy5c-ASIfdpQhYK_QIA-19" value="16" style="ellipse;whiteSpace=wrap;html=1;aspect=fixed;fillColor=#f8cecc;strokeColor=#b85450;gradientColor=#ea6b66;" vertex="1" parent="1">
          <mxGeometry x="1520" y="1720" width="40" height="40" as="geometry" />
        </mxCell>
        <mxCell id="xgy5c-ASIfdpQhYK_QIA-20" style="edgeStyle=none;rounded=1;sketch=0;orthogonalLoop=1;jettySize=auto;html=1;exitX=0.5;exitY=1;exitDx=0;exitDy=0;entryX=0.5;entryY=0;entryDx=0;entryDy=0;fontColor=#143642;strokeColor=#A8201A;fillColor=#FAE5C7;" edge="1" parent="1" source="xgy5c-ASIfdpQhYK_QIA-22" target="xgy5c-ASIfdpQhYK_QIA-23">
          <mxGeometry relative="1" as="geometry" />
        </mxCell>
        <mxCell id="xgy5c-ASIfdpQhYK_QIA-21" style="edgeStyle=none;rounded=1;sketch=0;orthogonalLoop=1;jettySize=auto;html=1;exitX=0.5;exitY=1;exitDx=0;exitDy=0;entryX=0.5;entryY=0;entryDx=0;entryDy=0;fontColor=#143642;strokeColor=#A8201A;fillColor=#FAE5C7;" edge="1" parent="1" source="xgy5c-ASIfdpQhYK_QIA-22" target="xgy5c-ASIfdpQhYK_QIA-39">
          <mxGeometry relative="1" as="geometry" />
        </mxCell>
        <mxCell id="xgy5c-ASIfdpQhYK_QIA-22" value="13" style="ellipse;whiteSpace=wrap;html=1;aspect=fixed;gradientColor=#ea6b66;fillColor=#f8cecc;strokeColor=#b85450;" vertex="1" parent="1">
          <mxGeometry x="1440" y="1560" width="40" height="40" as="geometry" />
        </mxCell>
        <mxCell id="xgy5c-ASIfdpQhYK_QIA-23" value="11" style="ellipse;whiteSpace=wrap;html=1;aspect=fixed;fillColor=#f5f5f5;strokeColor=#666666;gradientColor=#b3b3b3;" vertex="1" parent="1">
          <mxGeometry x="1400" y="1640" width="40" height="40" as="geometry" />
        </mxCell>
        <mxCell id="xgy5c-ASIfdpQhYK_QIA-24" value="10" style="ellipse;whiteSpace=wrap;html=1;aspect=fixed;fillColor=#f5f5f5;strokeColor=#666666;gradientColor=#b3b3b3;" vertex="1" parent="1">
          <mxGeometry x="1320" y="1480" width="40" height="40" as="geometry" />
        </mxCell>
        <mxCell id="xgy5c-ASIfdpQhYK_QIA-25" value="5" style="ellipse;whiteSpace=wrap;html=1;aspect=fixed;fillColor=#f8cecc;strokeColor=#b85450;gradientColor=#ea6b66;" vertex="1" parent="1">
          <mxGeometry x="1240" y="1560" width="40" height="40" as="geometry" />
        </mxCell>
        <mxCell id="xgy5c-ASIfdpQhYK_QIA-26" value="3" style="ellipse;whiteSpace=wrap;html=1;aspect=fixed;fillColor=#f5f5f5;strokeColor=#666666;gradientColor=#b3b3b3;" vertex="1" parent="1">
          <mxGeometry x="1200" y="1640" width="40" height="40" as="geometry" />
        </mxCell>
        <mxCell id="xgy5c-ASIfdpQhYK_QIA-27" value="8" style="ellipse;whiteSpace=wrap;html=1;aspect=fixed;fillColor=#f5f5f5;strokeColor=#666666;gradientColor=#b3b3b3;" vertex="1" parent="1">
          <mxGeometry x="1280" y="1640" width="40" height="40" as="geometry" />
        </mxCell>
        <mxCell id="xgy5c-ASIfdpQhYK_QIA-28" value="9" style="ellipse;whiteSpace=wrap;html=1;aspect=fixed;fillColor=#f8cecc;strokeColor=#b85450;gradientColor=#ea6b66;" vertex="1" parent="1">
          <mxGeometry x="1320" y="1720" width="40" height="40" as="geometry" />
        </mxCell>
        <mxCell id="xgy5c-ASIfdpQhYK_QIA-29" value="10" style="ellipse;whiteSpace=wrap;html=1;aspect=fixed;fillColor=#f5f5f5;strokeColor=#666666;gradientColor=#b3b3b3;" vertex="1" parent="1">
          <mxGeometry x="1320" y="1480" width="40" height="40" as="geometry" />
        </mxCell>
        <mxCell id="xgy5c-ASIfdpQhYK_QIA-30" value="5" style="ellipse;whiteSpace=wrap;html=1;aspect=fixed;fillColor=#f8cecc;strokeColor=#b85450;gradientColor=#ea6b66;" vertex="1" parent="1">
          <mxGeometry x="1240" y="1560" width="40" height="40" as="geometry" />
        </mxCell>
        <mxCell id="xgy5c-ASIfdpQhYK_QIA-31" value="3" style="ellipse;whiteSpace=wrap;html=1;aspect=fixed;fillColor=#f5f5f5;strokeColor=#666666;gradientColor=#b3b3b3;" vertex="1" parent="1">
          <mxGeometry x="1200" y="1640" width="40" height="40" as="geometry" />
        </mxCell>
        <mxCell id="xgy5c-ASIfdpQhYK_QIA-32" style="edgeStyle=none;rounded=0;orthogonalLoop=1;jettySize=auto;html=1;exitX=0.5;exitY=1;exitDx=0;exitDy=0;entryX=0.5;entryY=0;entryDx=0;entryDy=0;strokeColor=#A8201A;" edge="1" parent="1" source="xgy5c-ASIfdpQhYK_QIA-34" target="xgy5c-ASIfdpQhYK_QIA-11">
          <mxGeometry relative="1" as="geometry" />
        </mxCell>
        <mxCell id="xgy5c-ASIfdpQhYK_QIA-33" style="edgeStyle=none;rounded=0;orthogonalLoop=1;jettySize=auto;html=1;exitX=0.5;exitY=1;exitDx=0;exitDy=0;entryX=0.5;entryY=0;entryDx=0;entryDy=0;strokeColor=#A8201A;" edge="1" parent="1" source="xgy5c-ASIfdpQhYK_QIA-34" target="xgy5c-ASIfdpQhYK_QIA-35">
          <mxGeometry relative="1" as="geometry" />
        </mxCell>
        <mxCell id="xgy5c-ASIfdpQhYK_QIA-34" value="8" style="ellipse;whiteSpace=wrap;html=1;aspect=fixed;fillColor=#f5f5f5;strokeColor=#666666;gradientColor=#b3b3b3;" vertex="1" parent="1">
          <mxGeometry x="1280" y="1640" width="40" height="40" as="geometry" />
        </mxCell>
        <mxCell id="xgy5c-ASIfdpQhYK_QIA-35" value="9" style="ellipse;whiteSpace=wrap;html=1;aspect=fixed;fillColor=#f8cecc;strokeColor=#b85450;gradientColor=#ea6b66;" vertex="1" parent="1">
          <mxGeometry x="1320" y="1720" width="40" height="40" as="geometry" />
        </mxCell>
        <mxCell id="xgy5c-ASIfdpQhYK_QIA-36" value="14" style="ellipse;whiteSpace=wrap;html=1;aspect=fixed;fillColor=#f8cecc;strokeColor=#b85450;gradientColor=#ea6b66;" vertex="1" parent="1">
          <mxGeometry x="1440" y="1720" width="40" height="40" as="geometry" />
        </mxCell>
        <mxCell id="xgy5c-ASIfdpQhYK_QIA-37" style="edgeStyle=none;rounded=1;sketch=0;orthogonalLoop=1;jettySize=auto;html=1;exitX=0.5;exitY=1;exitDx=0;exitDy=0;entryX=0.5;entryY=0;entryDx=0;entryDy=0;fontColor=#143642;strokeColor=#A8201A;fillColor=#FAE5C7;" edge="1" parent="1" source="xgy5c-ASIfdpQhYK_QIA-39" target="xgy5c-ASIfdpQhYK_QIA-36">
          <mxGeometry relative="1" as="geometry" />
        </mxCell>
        <mxCell id="xgy5c-ASIfdpQhYK_QIA-38" style="edgeStyle=none;rounded=1;sketch=0;orthogonalLoop=1;jettySize=auto;html=1;exitX=0.5;exitY=1;exitDx=0;exitDy=0;entryX=0.5;entryY=0;entryDx=0;entryDy=0;fontColor=#143642;strokeColor=#A8201A;fillColor=#FAE5C7;" edge="1" parent="1" source="xgy5c-ASIfdpQhYK_QIA-39" target="xgy5c-ASIfdpQhYK_QIA-19">
          <mxGeometry relative="1" as="geometry" />
        </mxCell>
        <mxCell id="xgy5c-ASIfdpQhYK_QIA-39" value="15" style="ellipse;whiteSpace=wrap;html=1;aspect=fixed;fillColor=#f5f5f5;strokeColor=#666666;gradientColor=#b3b3b3;" vertex="1" parent="1">
          <mxGeometry x="1480" y="1640" width="40" height="40" as="geometry" />
        </mxCell>
        <mxCell id="xgy5c-ASIfdpQhYK_QIA-40" value="" style="html=1;shadow=0;dashed=0;align=center;verticalAlign=middle;shape=mxgraph.arrows2.arrow;dy=0.6;dx=40;notch=0;rounded=1;glass=0;sketch=0;fontColor=#143642;strokeColor=#0F8B8D;fillColor=#FAE5C7;" vertex="1" parent="1">
          <mxGeometry x="1540" y="1590" width="70" height="20" as="geometry" />
        </mxCell>
        <mxCell id="xgy5c-ASIfdpQhYK_QIA-42" value="&lt;font color=&quot;#143642&quot;&gt;&lt;b&gt;找到后继元素11，记为S&lt;/b&gt;&lt;/font&gt;" style="shape=callout;whiteSpace=wrap;html=1;perimeter=calloutPerimeter;rounded=1;position2=0.86;" vertex="1" parent="1">
          <mxGeometry x="1310" y="1565" width="105" height="70" as="geometry" />
        </mxCell>
        <mxCell id="xgy5c-ASIfdpQhYK_QIA-43" style="edgeStyle=none;rounded=1;sketch=0;orthogonalLoop=1;jettySize=auto;html=1;exitX=0.5;exitY=1;exitDx=0;exitDy=0;entryX=0.5;entryY=0;entryDx=0;entryDy=0;fontColor=#143642;strokeColor=#A8201A;fillColor=#FAE5C7;" edge="1" parent="1" source="xgy5c-ASIfdpQhYK_QIA-44" target="xgy5c-ASIfdpQhYK_QIA-56">
          <mxGeometry relative="1" as="geometry" />
        </mxCell>
        <mxCell id="xgy5c-ASIfdpQhYK_QIA-44" value="10" style="ellipse;whiteSpace=wrap;html=1;aspect=fixed;fillColor=#f5f5f5;strokeColor=#666666;gradientColor=#b3b3b3;" vertex="1" parent="1">
          <mxGeometry x="1720" y="1480" width="40" height="40" as="geometry" />
        </mxCell>
        <mxCell id="xgy5c-ASIfdpQhYK_QIA-45" value="7" style="ellipse;whiteSpace=wrap;html=1;aspect=fixed;fillColor=#f8cecc;strokeColor=#b85450;gradientColor=#ea6b66;" vertex="1" parent="1">
          <mxGeometry x="1640" y="1720" width="40" height="40" as="geometry" />
        </mxCell>
        <mxCell id="xgy5c-ASIfdpQhYK_QIA-46" value="3" style="ellipse;whiteSpace=wrap;html=1;aspect=fixed;fillColor=#f5f5f5;strokeColor=#666666;gradientColor=#b3b3b3;" vertex="1" parent="1">
          <mxGeometry x="1600" y="1640" width="40" height="40" as="geometry" />
        </mxCell>
        <mxCell id="xgy5c-ASIfdpQhYK_QIA-47" value="9" style="ellipse;whiteSpace=wrap;html=1;aspect=fixed;fillColor=#f8cecc;strokeColor=#b85450;gradientColor=#ea6b66;" vertex="1" parent="1">
          <mxGeometry x="1720" y="1720" width="40" height="40" as="geometry" />
        </mxCell>
        <mxCell id="xgy5c-ASIfdpQhYK_QIA-48" value="8" style="ellipse;whiteSpace=wrap;html=1;aspect=fixed;fillColor=#f5f5f5;strokeColor=#666666;gradientColor=#b3b3b3;" vertex="1" parent="1">
          <mxGeometry x="1680" y="1640" width="40" height="40" as="geometry" />
        </mxCell>
        <mxCell id="xgy5c-ASIfdpQhYK_QIA-49" style="edgeStyle=none;rounded=1;sketch=0;orthogonalLoop=1;jettySize=auto;html=1;exitX=0.5;exitY=1;exitDx=0;exitDy=0;entryX=0.5;entryY=0;entryDx=0;entryDy=0;fontColor=#143642;strokeColor=#A8201A;fillColor=#FAE5C7;" edge="1" parent="1" source="xgy5c-ASIfdpQhYK_QIA-51" target="xgy5c-ASIfdpQhYK_QIA-46">
          <mxGeometry x="1560" y="1480" as="geometry" />
        </mxCell>
        <mxCell id="xgy5c-ASIfdpQhYK_QIA-50" style="edgeStyle=none;rounded=1;sketch=0;orthogonalLoop=1;jettySize=auto;html=1;exitX=0.5;exitY=1;exitDx=0;exitDy=0;entryX=0.5;entryY=0;entryDx=0;entryDy=0;fontColor=#143642;strokeColor=#A8201A;fillColor=#FAE5C7;" edge="1" parent="1" source="xgy5c-ASIfdpQhYK_QIA-51" target="xgy5c-ASIfdpQhYK_QIA-48">
          <mxGeometry x="1560" y="1480" as="geometry" />
        </mxCell>
        <mxCell id="xgy5c-ASIfdpQhYK_QIA-51" value="5" style="ellipse;whiteSpace=wrap;html=1;aspect=fixed;fillColor=#f8cecc;strokeColor=#b85450;gradientColor=#ea6b66;" vertex="1" parent="1">
          <mxGeometry x="1640" y="1560" width="40" height="40" as="geometry" />
        </mxCell>
        <mxCell id="xgy5c-ASIfdpQhYK_QIA-52" style="rounded=1;sketch=0;orthogonalLoop=1;jettySize=auto;html=1;exitX=0.5;exitY=1;exitDx=0;exitDy=0;entryX=0.5;entryY=0;entryDx=0;entryDy=0;fontColor=#143642;strokeColor=#A8201A;fillColor=#FAE5C7;" edge="1" parent="1" source="xgy5c-ASIfdpQhYK_QIA-44" target="xgy5c-ASIfdpQhYK_QIA-51">
          <mxGeometry x="1560" y="1480" as="geometry" />
        </mxCell>
        <mxCell id="xgy5c-ASIfdpQhYK_QIA-53" value="16" style="ellipse;whiteSpace=wrap;html=1;aspect=fixed;fillColor=#f8cecc;strokeColor=#b85450;gradientColor=#ea6b66;" vertex="1" parent="1">
          <mxGeometry x="1920" y="1720" width="40" height="40" as="geometry" />
        </mxCell>
        <mxCell id="xgy5c-ASIfdpQhYK_QIA-54" style="edgeStyle=none;rounded=1;sketch=0;orthogonalLoop=1;jettySize=auto;html=1;exitX=0.5;exitY=1;exitDx=0;exitDy=0;entryX=0.5;entryY=0;entryDx=0;entryDy=0;fontColor=#143642;strokeColor=#A8201A;fillColor=#FAE5C7;" edge="1" parent="1" source="xgy5c-ASIfdpQhYK_QIA-56" target="xgy5c-ASIfdpQhYK_QIA-57">
          <mxGeometry relative="1" as="geometry" />
        </mxCell>
        <mxCell id="xgy5c-ASIfdpQhYK_QIA-55" style="edgeStyle=none;rounded=1;sketch=0;orthogonalLoop=1;jettySize=auto;html=1;exitX=0.5;exitY=1;exitDx=0;exitDy=0;entryX=0.5;entryY=0;entryDx=0;entryDy=0;fontColor=#143642;strokeColor=#A8201A;fillColor=#FAE5C7;" edge="1" parent="1" source="xgy5c-ASIfdpQhYK_QIA-56" target="xgy5c-ASIfdpQhYK_QIA-73">
          <mxGeometry relative="1" as="geometry" />
        </mxCell>
        <mxCell id="xgy5c-ASIfdpQhYK_QIA-56" value="13" style="ellipse;whiteSpace=wrap;html=1;aspect=fixed;gradientColor=#ea6b66;fillColor=#f8cecc;strokeColor=#b85450;" vertex="1" parent="1">
          <mxGeometry x="1840" y="1560" width="40" height="40" as="geometry" />
        </mxCell>
        <mxCell id="xgy5c-ASIfdpQhYK_QIA-57" value="11" style="ellipse;whiteSpace=wrap;html=1;aspect=fixed;fillColor=#f5f5f5;strokeColor=#666666;gradientColor=#b3b3b3;" vertex="1" parent="1">
          <mxGeometry x="1800" y="1640" width="40" height="40" as="geometry" />
        </mxCell>
        <mxCell id="xgy5c-ASIfdpQhYK_QIA-58" value="10" style="ellipse;whiteSpace=wrap;html=1;aspect=fixed;fillColor=#f5f5f5;strokeColor=#666666;gradientColor=#b3b3b3;" vertex="1" parent="1">
          <mxGeometry x="1720" y="1480" width="40" height="40" as="geometry" />
        </mxCell>
        <mxCell id="xgy5c-ASIfdpQhYK_QIA-59" value="5" style="ellipse;whiteSpace=wrap;html=1;aspect=fixed;fillColor=#f8cecc;strokeColor=#b85450;gradientColor=#ea6b66;" vertex="1" parent="1">
          <mxGeometry x="1640" y="1560" width="40" height="40" as="geometry" />
        </mxCell>
        <mxCell id="xgy5c-ASIfdpQhYK_QIA-60" value="3" style="ellipse;whiteSpace=wrap;html=1;aspect=fixed;fillColor=#f5f5f5;strokeColor=#666666;gradientColor=#b3b3b3;" vertex="1" parent="1">
          <mxGeometry x="1600" y="1640" width="40" height="40" as="geometry" />
        </mxCell>
        <mxCell id="xgy5c-ASIfdpQhYK_QIA-61" value="8" style="ellipse;whiteSpace=wrap;html=1;aspect=fixed;fillColor=#f5f5f5;strokeColor=#666666;gradientColor=#b3b3b3;" vertex="1" parent="1">
          <mxGeometry x="1680" y="1640" width="40" height="40" as="geometry" />
        </mxCell>
        <mxCell id="xgy5c-ASIfdpQhYK_QIA-62" value="9" style="ellipse;whiteSpace=wrap;html=1;aspect=fixed;fillColor=#f8cecc;strokeColor=#b85450;gradientColor=#ea6b66;" vertex="1" parent="1">
          <mxGeometry x="1720" y="1720" width="40" height="40" as="geometry" />
        </mxCell>
        <mxCell id="xgy5c-ASIfdpQhYK_QIA-63" value="11" style="ellipse;whiteSpace=wrap;html=1;aspect=fixed;fillColor=#f5f5f5;strokeColor=#666666;gradientColor=#b3b3b3;" vertex="1" parent="1">
          <mxGeometry x="1720" y="1480" width="40" height="40" as="geometry" />
        </mxCell>
        <mxCell id="xgy5c-ASIfdpQhYK_QIA-64" value="5" style="ellipse;whiteSpace=wrap;html=1;aspect=fixed;fillColor=#f8cecc;strokeColor=#b85450;gradientColor=#ea6b66;" vertex="1" parent="1">
          <mxGeometry x="1640" y="1560" width="40" height="40" as="geometry" />
        </mxCell>
        <mxCell id="xgy5c-ASIfdpQhYK_QIA-65" value="3" style="ellipse;whiteSpace=wrap;html=1;aspect=fixed;fillColor=#f5f5f5;strokeColor=#666666;gradientColor=#b3b3b3;" vertex="1" parent="1">
          <mxGeometry x="1600" y="1640" width="40" height="40" as="geometry" />
        </mxCell>
        <mxCell id="xgy5c-ASIfdpQhYK_QIA-66" style="edgeStyle=none;rounded=0;orthogonalLoop=1;jettySize=auto;html=1;exitX=0.5;exitY=1;exitDx=0;exitDy=0;entryX=0.5;entryY=0;entryDx=0;entryDy=0;strokeColor=#A8201A;" edge="1" parent="1" source="xgy5c-ASIfdpQhYK_QIA-68" target="xgy5c-ASIfdpQhYK_QIA-45">
          <mxGeometry relative="1" as="geometry" />
        </mxCell>
        <mxCell id="xgy5c-ASIfdpQhYK_QIA-67" style="edgeStyle=none;rounded=0;orthogonalLoop=1;jettySize=auto;html=1;exitX=0.5;exitY=1;exitDx=0;exitDy=0;entryX=0.5;entryY=0;entryDx=0;entryDy=0;strokeColor=#A8201A;" edge="1" parent="1" source="xgy5c-ASIfdpQhYK_QIA-68" target="xgy5c-ASIfdpQhYK_QIA-69">
          <mxGeometry relative="1" as="geometry" />
        </mxCell>
        <mxCell id="xgy5c-ASIfdpQhYK_QIA-68" value="8" style="ellipse;whiteSpace=wrap;html=1;aspect=fixed;fillColor=#f5f5f5;strokeColor=#666666;gradientColor=#b3b3b3;" vertex="1" parent="1">
          <mxGeometry x="1680" y="1640" width="40" height="40" as="geometry" />
        </mxCell>
        <mxCell id="xgy5c-ASIfdpQhYK_QIA-69" value="9" style="ellipse;whiteSpace=wrap;html=1;aspect=fixed;fillColor=#f8cecc;strokeColor=#b85450;gradientColor=#ea6b66;" vertex="1" parent="1">
          <mxGeometry x="1720" y="1720" width="40" height="40" as="geometry" />
        </mxCell>
        <mxCell id="xgy5c-ASIfdpQhYK_QIA-70" value="14" style="ellipse;whiteSpace=wrap;html=1;aspect=fixed;fillColor=#f8cecc;strokeColor=#b85450;gradientColor=#ea6b66;" vertex="1" parent="1">
          <mxGeometry x="1840" y="1720" width="40" height="40" as="geometry" />
        </mxCell>
        <mxCell id="xgy5c-ASIfdpQhYK_QIA-71" style="edgeStyle=none;rounded=1;sketch=0;orthogonalLoop=1;jettySize=auto;html=1;exitX=0.5;exitY=1;exitDx=0;exitDy=0;entryX=0.5;entryY=0;entryDx=0;entryDy=0;fontColor=#143642;strokeColor=#A8201A;fillColor=#FAE5C7;" edge="1" parent="1" source="xgy5c-ASIfdpQhYK_QIA-73" target="xgy5c-ASIfdpQhYK_QIA-70">
          <mxGeometry relative="1" as="geometry" />
        </mxCell>
        <mxCell id="xgy5c-ASIfdpQhYK_QIA-72" style="edgeStyle=none;rounded=1;sketch=0;orthogonalLoop=1;jettySize=auto;html=1;exitX=0.5;exitY=1;exitDx=0;exitDy=0;entryX=0.5;entryY=0;entryDx=0;entryDy=0;fontColor=#143642;strokeColor=#A8201A;fillColor=#FAE5C7;" edge="1" parent="1" source="xgy5c-ASIfdpQhYK_QIA-73" target="xgy5c-ASIfdpQhYK_QIA-53">
          <mxGeometry relative="1" as="geometry" />
        </mxCell>
        <mxCell id="xgy5c-ASIfdpQhYK_QIA-73" value="15" style="ellipse;whiteSpace=wrap;html=1;aspect=fixed;fillColor=#f5f5f5;strokeColor=#666666;gradientColor=#b3b3b3;" vertex="1" parent="1">
          <mxGeometry x="1880" y="1640" width="40" height="40" as="geometry" />
        </mxCell>
        <mxCell id="xgy5c-ASIfdpQhYK_QIA-74" value="&lt;font color=&quot;#143642&quot;&gt;&lt;b&gt;S的key、value&lt;br&gt;赋值给DE&lt;/b&gt;&lt;/font&gt;" style="shape=callout;whiteSpace=wrap;html=1;perimeter=calloutPerimeter;rounded=1;position2=0.19;" vertex="1" parent="1">
          <mxGeometry x="1752.5" y="1410" width="140" height="80" as="geometry" />
        </mxCell>
        <mxCell id="xgy5c-ASIfdpQhYK_QIA-112" value="&lt;font color=&quot;#143642&quot;&gt;&lt;b&gt;S为黑色，需要修复树的结构&lt;/b&gt;&lt;/font&gt;" style="shape=callout;whiteSpace=wrap;html=1;perimeter=calloutPerimeter;rounded=1;position2=0.93;" vertex="1" parent="1">
          <mxGeometry x="1700" y="1560" width="110" height="80" as="geometry" />
        </mxCell>
        <mxCell id="xgy5c-ASIfdpQhYK_QIA-113" style="edgeStyle=none;rounded=1;sketch=0;orthogonalLoop=1;jettySize=auto;html=1;exitX=0.5;exitY=1;exitDx=0;exitDy=0;entryX=0.5;entryY=0;entryDx=0;entryDy=0;fontColor=#143642;strokeColor=#A8201A;fillColor=#FAE5C7;" edge="1" parent="1" source="xgy5c-ASIfdpQhYK_QIA-114" target="xgy5c-ASIfdpQhYK_QIA-126">
          <mxGeometry relative="1" as="geometry" />
        </mxCell>
        <mxCell id="xgy5c-ASIfdpQhYK_QIA-114" value="10" style="ellipse;whiteSpace=wrap;html=1;aspect=fixed;fillColor=#f5f5f5;strokeColor=#666666;gradientColor=#b3b3b3;" vertex="1" parent="1">
          <mxGeometry x="2120" y="1480" width="40" height="40" as="geometry" />
        </mxCell>
        <mxCell id="xgy5c-ASIfdpQhYK_QIA-115" value="7" style="ellipse;whiteSpace=wrap;html=1;aspect=fixed;fillColor=#f8cecc;strokeColor=#b85450;gradientColor=#ea6b66;" vertex="1" parent="1">
          <mxGeometry x="2040" y="1720" width="40" height="40" as="geometry" />
        </mxCell>
        <mxCell id="xgy5c-ASIfdpQhYK_QIA-116" value="3" style="ellipse;whiteSpace=wrap;html=1;aspect=fixed;fillColor=#f5f5f5;strokeColor=#666666;gradientColor=#b3b3b3;" vertex="1" parent="1">
          <mxGeometry x="2000" y="1640" width="40" height="40" as="geometry" />
        </mxCell>
        <mxCell id="xgy5c-ASIfdpQhYK_QIA-117" value="9" style="ellipse;whiteSpace=wrap;html=1;aspect=fixed;fillColor=#f8cecc;strokeColor=#b85450;gradientColor=#ea6b66;" vertex="1" parent="1">
          <mxGeometry x="2120" y="1720" width="40" height="40" as="geometry" />
        </mxCell>
        <mxCell id="xgy5c-ASIfdpQhYK_QIA-118" value="8" style="ellipse;whiteSpace=wrap;html=1;aspect=fixed;fillColor=#f5f5f5;strokeColor=#666666;gradientColor=#b3b3b3;" vertex="1" parent="1">
          <mxGeometry x="2080" y="1640" width="40" height="40" as="geometry" />
        </mxCell>
        <mxCell id="xgy5c-ASIfdpQhYK_QIA-119" style="edgeStyle=none;rounded=1;sketch=0;orthogonalLoop=1;jettySize=auto;html=1;exitX=0.5;exitY=1;exitDx=0;exitDy=0;entryX=0.5;entryY=0;entryDx=0;entryDy=0;fontColor=#143642;strokeColor=#A8201A;fillColor=#FAE5C7;" edge="1" parent="1" source="xgy5c-ASIfdpQhYK_QIA-121" target="xgy5c-ASIfdpQhYK_QIA-116">
          <mxGeometry x="1960" y="1480" as="geometry" />
        </mxCell>
        <mxCell id="xgy5c-ASIfdpQhYK_QIA-120" style="edgeStyle=none;rounded=1;sketch=0;orthogonalLoop=1;jettySize=auto;html=1;exitX=0.5;exitY=1;exitDx=0;exitDy=0;entryX=0.5;entryY=0;entryDx=0;entryDy=0;fontColor=#143642;strokeColor=#A8201A;fillColor=#FAE5C7;" edge="1" parent="1" source="xgy5c-ASIfdpQhYK_QIA-121" target="xgy5c-ASIfdpQhYK_QIA-118">
          <mxGeometry x="1960" y="1480" as="geometry" />
        </mxCell>
        <mxCell id="xgy5c-ASIfdpQhYK_QIA-121" value="5" style="ellipse;whiteSpace=wrap;html=1;aspect=fixed;fillColor=#f8cecc;strokeColor=#b85450;gradientColor=#ea6b66;" vertex="1" parent="1">
          <mxGeometry x="2040" y="1560" width="40" height="40" as="geometry" />
        </mxCell>
        <mxCell id="xgy5c-ASIfdpQhYK_QIA-122" style="rounded=1;sketch=0;orthogonalLoop=1;jettySize=auto;html=1;exitX=0.5;exitY=1;exitDx=0;exitDy=0;entryX=0.5;entryY=0;entryDx=0;entryDy=0;fontColor=#143642;strokeColor=#A8201A;fillColor=#FAE5C7;" edge="1" parent="1" source="xgy5c-ASIfdpQhYK_QIA-114" target="xgy5c-ASIfdpQhYK_QIA-121">
          <mxGeometry x="1960" y="1480" as="geometry" />
        </mxCell>
        <mxCell id="xgy5c-ASIfdpQhYK_QIA-123" value="16" style="ellipse;whiteSpace=wrap;html=1;aspect=fixed;fillColor=#f8cecc;strokeColor=#b85450;gradientColor=#ea6b66;" vertex="1" parent="1">
          <mxGeometry x="2320" y="1720" width="40" height="40" as="geometry" />
        </mxCell>
        <mxCell id="xgy5c-ASIfdpQhYK_QIA-124" style="edgeStyle=none;rounded=1;sketch=0;orthogonalLoop=1;jettySize=auto;html=1;exitX=0.5;exitY=1;exitDx=0;exitDy=0;entryX=0.5;entryY=0;entryDx=0;entryDy=0;fontColor=#143642;strokeColor=#A8201A;fillColor=#FAE5C7;" edge="1" parent="1" source="xgy5c-ASIfdpQhYK_QIA-126" target="xgy5c-ASIfdpQhYK_QIA-127">
          <mxGeometry relative="1" as="geometry" />
        </mxCell>
        <mxCell id="xgy5c-ASIfdpQhYK_QIA-125" style="edgeStyle=none;rounded=1;sketch=0;orthogonalLoop=1;jettySize=auto;html=1;exitX=0.5;exitY=1;exitDx=0;exitDy=0;entryX=0.5;entryY=0;entryDx=0;entryDy=0;fontColor=#143642;strokeColor=#A8201A;fillColor=#FAE5C7;" edge="1" parent="1" source="xgy5c-ASIfdpQhYK_QIA-126" target="xgy5c-ASIfdpQhYK_QIA-143">
          <mxGeometry relative="1" as="geometry" />
        </mxCell>
        <mxCell id="xgy5c-ASIfdpQhYK_QIA-126" value="13" style="ellipse;whiteSpace=wrap;html=1;aspect=fixed;gradientColor=#ea6b66;fillColor=#f8cecc;strokeColor=#b85450;" vertex="1" parent="1">
          <mxGeometry x="2240" y="1560" width="40" height="40" as="geometry" />
        </mxCell>
        <mxCell id="xgy5c-ASIfdpQhYK_QIA-127" value="11" style="ellipse;whiteSpace=wrap;html=1;aspect=fixed;fillColor=#f5f5f5;strokeColor=#666666;gradientColor=#b3b3b3;" vertex="1" parent="1">
          <mxGeometry x="2200" y="1640" width="40" height="40" as="geometry" />
        </mxCell>
        <mxCell id="xgy5c-ASIfdpQhYK_QIA-128" value="10" style="ellipse;whiteSpace=wrap;html=1;aspect=fixed;fillColor=#f5f5f5;strokeColor=#666666;gradientColor=#b3b3b3;" vertex="1" parent="1">
          <mxGeometry x="2120" y="1480" width="40" height="40" as="geometry" />
        </mxCell>
        <mxCell id="xgy5c-ASIfdpQhYK_QIA-129" value="5" style="ellipse;whiteSpace=wrap;html=1;aspect=fixed;fillColor=#f8cecc;strokeColor=#b85450;gradientColor=#ea6b66;" vertex="1" parent="1">
          <mxGeometry x="2040" y="1560" width="40" height="40" as="geometry" />
        </mxCell>
        <mxCell id="xgy5c-ASIfdpQhYK_QIA-130" value="3" style="ellipse;whiteSpace=wrap;html=1;aspect=fixed;fillColor=#f5f5f5;strokeColor=#666666;gradientColor=#b3b3b3;" vertex="1" parent="1">
          <mxGeometry x="2000" y="1640" width="40" height="40" as="geometry" />
        </mxCell>
        <mxCell id="xgy5c-ASIfdpQhYK_QIA-131" value="8" style="ellipse;whiteSpace=wrap;html=1;aspect=fixed;fillColor=#f5f5f5;strokeColor=#666666;gradientColor=#b3b3b3;" vertex="1" parent="1">
          <mxGeometry x="2080" y="1640" width="40" height="40" as="geometry" />
        </mxCell>
        <mxCell id="xgy5c-ASIfdpQhYK_QIA-132" value="9" style="ellipse;whiteSpace=wrap;html=1;aspect=fixed;fillColor=#f8cecc;strokeColor=#b85450;gradientColor=#ea6b66;" vertex="1" parent="1">
          <mxGeometry x="2120" y="1720" width="40" height="40" as="geometry" />
        </mxCell>
        <mxCell id="xgy5c-ASIfdpQhYK_QIA-133" value="11" style="ellipse;whiteSpace=wrap;html=1;aspect=fixed;fillColor=#f5f5f5;strokeColor=#666666;gradientColor=#b3b3b3;" vertex="1" parent="1">
          <mxGeometry x="2120" y="1480" width="40" height="40" as="geometry" />
        </mxCell>
        <mxCell id="xgy5c-ASIfdpQhYK_QIA-134" value="5" style="ellipse;whiteSpace=wrap;html=1;aspect=fixed;fillColor=#f8cecc;strokeColor=#b85450;gradientColor=#ea6b66;" vertex="1" parent="1">
          <mxGeometry x="2040" y="1560" width="40" height="40" as="geometry" />
        </mxCell>
        <mxCell id="xgy5c-ASIfdpQhYK_QIA-135" value="3" style="ellipse;whiteSpace=wrap;html=1;aspect=fixed;fillColor=#f5f5f5;strokeColor=#666666;gradientColor=#b3b3b3;" vertex="1" parent="1">
          <mxGeometry x="2000" y="1640" width="40" height="40" as="geometry" />
        </mxCell>
        <mxCell id="xgy5c-ASIfdpQhYK_QIA-136" style="edgeStyle=none;rounded=0;orthogonalLoop=1;jettySize=auto;html=1;exitX=0.5;exitY=1;exitDx=0;exitDy=0;entryX=0.5;entryY=0;entryDx=0;entryDy=0;strokeColor=#A8201A;" edge="1" parent="1" source="xgy5c-ASIfdpQhYK_QIA-138" target="xgy5c-ASIfdpQhYK_QIA-115">
          <mxGeometry relative="1" as="geometry" />
        </mxCell>
        <mxCell id="xgy5c-ASIfdpQhYK_QIA-137" style="edgeStyle=none;rounded=0;orthogonalLoop=1;jettySize=auto;html=1;exitX=0.5;exitY=1;exitDx=0;exitDy=0;entryX=0.5;entryY=0;entryDx=0;entryDy=0;strokeColor=#A8201A;" edge="1" parent="1" source="xgy5c-ASIfdpQhYK_QIA-138" target="xgy5c-ASIfdpQhYK_QIA-139">
          <mxGeometry relative="1" as="geometry" />
        </mxCell>
        <mxCell id="xgy5c-ASIfdpQhYK_QIA-138" value="8" style="ellipse;whiteSpace=wrap;html=1;aspect=fixed;fillColor=#f5f5f5;strokeColor=#666666;gradientColor=#b3b3b3;" vertex="1" parent="1">
          <mxGeometry x="2080" y="1640" width="40" height="40" as="geometry" />
        </mxCell>
        <mxCell id="xgy5c-ASIfdpQhYK_QIA-139" value="9" style="ellipse;whiteSpace=wrap;html=1;aspect=fixed;fillColor=#f8cecc;strokeColor=#b85450;gradientColor=#ea6b66;" vertex="1" parent="1">
          <mxGeometry x="2120" y="1720" width="40" height="40" as="geometry" />
        </mxCell>
        <mxCell id="xgy5c-ASIfdpQhYK_QIA-140" value="14" style="ellipse;whiteSpace=wrap;html=1;aspect=fixed;fillColor=#f8cecc;strokeColor=#b85450;gradientColor=#ea6b66;" vertex="1" parent="1">
          <mxGeometry x="2240" y="1720" width="40" height="40" as="geometry" />
        </mxCell>
        <mxCell id="xgy5c-ASIfdpQhYK_QIA-141" style="edgeStyle=none;rounded=1;sketch=0;orthogonalLoop=1;jettySize=auto;html=1;exitX=0.5;exitY=1;exitDx=0;exitDy=0;entryX=0.5;entryY=0;entryDx=0;entryDy=0;fontColor=#143642;strokeColor=#A8201A;fillColor=#FAE5C7;" edge="1" parent="1" source="xgy5c-ASIfdpQhYK_QIA-143" target="xgy5c-ASIfdpQhYK_QIA-140">
          <mxGeometry relative="1" as="geometry" />
        </mxCell>
        <mxCell id="xgy5c-ASIfdpQhYK_QIA-142" style="edgeStyle=none;rounded=1;sketch=0;orthogonalLoop=1;jettySize=auto;html=1;exitX=0.5;exitY=1;exitDx=0;exitDy=0;entryX=0.5;entryY=0;entryDx=0;entryDy=0;fontColor=#143642;strokeColor=#A8201A;fillColor=#FAE5C7;" edge="1" parent="1" source="xgy5c-ASIfdpQhYK_QIA-143" target="xgy5c-ASIfdpQhYK_QIA-123">
          <mxGeometry relative="1" as="geometry" />
        </mxCell>
        <mxCell id="xgy5c-ASIfdpQhYK_QIA-143" value="15" style="ellipse;whiteSpace=wrap;html=1;aspect=fixed;fillColor=#f8cecc;strokeColor=#b85450;gradientColor=#ea6b66;" vertex="1" parent="1">
          <mxGeometry x="2280" y="1640" width="40" height="40" as="geometry" />
        </mxCell>
        <mxCell id="xgy5c-ASIfdpQhYK_QIA-144" value="&lt;font color=&quot;#143642&quot;&gt;&lt;b&gt;S是13的左子节点&lt;/b&gt;&lt;/font&gt;" style="shape=callout;whiteSpace=wrap;html=1;perimeter=calloutPerimeter;rounded=1;position2=0.93;" vertex="1" parent="1">
          <mxGeometry x="2100" y="1560" width="110" height="80" as="geometry" />
        </mxCell>
        <mxCell id="xgy5c-ASIfdpQhYK_QIA-145" value="" style="html=1;shadow=0;dashed=0;align=center;verticalAlign=middle;shape=mxgraph.arrows2.arrow;dy=0.6;dx=40;notch=0;rounded=1;glass=0;sketch=0;fontColor=#143642;strokeColor=#0F8B8D;fillColor=#FAE5C7;" vertex="1" parent="1">
          <mxGeometry x="1930" y="1590" width="70" height="20" as="geometry" />
        </mxCell>
        <mxCell id="xgy5c-ASIfdpQhYK_QIA-146" value="&lt;font color=&quot;#143642&quot;&gt;&lt;b&gt;将13的右子节点（记为SIB）从黑色转化为13的颜色，即红色&lt;/b&gt;&lt;/font&gt;" style="shape=callout;whiteSpace=wrap;html=1;perimeter=calloutPerimeter;rounded=1;position2=0;" vertex="1" parent="1">
          <mxGeometry x="2310" y="1540" width="120" height="95" as="geometry" />
        </mxCell>
        <mxCell id="xgy5c-ASIfdpQhYK_QIA-147" style="edgeStyle=none;rounded=1;sketch=0;orthogonalLoop=1;jettySize=auto;html=1;exitX=0.5;exitY=1;exitDx=0;exitDy=0;entryX=0.5;entryY=0;entryDx=0;entryDy=0;fontColor=#143642;strokeColor=#A8201A;fillColor=#FAE5C7;" edge="1" parent="1" target="xgy5c-ASIfdpQhYK_QIA-160">
          <mxGeometry relative="1" as="geometry">
            <mxPoint x="2140" y="1920" as="sourcePoint" />
          </mxGeometry>
        </mxCell>
        <mxCell id="xgy5c-ASIfdpQhYK_QIA-149" value="7" style="ellipse;whiteSpace=wrap;html=1;aspect=fixed;fillColor=#f8cecc;strokeColor=#b85450;gradientColor=#ea6b66;" vertex="1" parent="1">
          <mxGeometry x="2040" y="2120" width="40" height="40" as="geometry" />
        </mxCell>
        <mxCell id="xgy5c-ASIfdpQhYK_QIA-150" value="3" style="ellipse;whiteSpace=wrap;html=1;aspect=fixed;fillColor=#f5f5f5;strokeColor=#666666;gradientColor=#b3b3b3;" vertex="1" parent="1">
          <mxGeometry x="2000" y="2040" width="40" height="40" as="geometry" />
        </mxCell>
        <mxCell id="xgy5c-ASIfdpQhYK_QIA-151" value="9" style="ellipse;whiteSpace=wrap;html=1;aspect=fixed;fillColor=#f8cecc;strokeColor=#b85450;gradientColor=#ea6b66;" vertex="1" parent="1">
          <mxGeometry x="2120" y="2120" width="40" height="40" as="geometry" />
        </mxCell>
        <mxCell id="xgy5c-ASIfdpQhYK_QIA-152" value="8" style="ellipse;whiteSpace=wrap;html=1;aspect=fixed;fillColor=#f5f5f5;strokeColor=#666666;gradientColor=#b3b3b3;" vertex="1" parent="1">
          <mxGeometry x="2080" y="2040" width="40" height="40" as="geometry" />
        </mxCell>
        <mxCell id="xgy5c-ASIfdpQhYK_QIA-153" style="edgeStyle=none;rounded=1;sketch=0;orthogonalLoop=1;jettySize=auto;html=1;exitX=0.5;exitY=1;exitDx=0;exitDy=0;entryX=0.5;entryY=0;entryDx=0;entryDy=0;fontColor=#143642;strokeColor=#A8201A;fillColor=#FAE5C7;" edge="1" parent="1" source="xgy5c-ASIfdpQhYK_QIA-155" target="xgy5c-ASIfdpQhYK_QIA-150">
          <mxGeometry x="1960" y="1880" as="geometry" />
        </mxCell>
        <mxCell id="xgy5c-ASIfdpQhYK_QIA-154" style="edgeStyle=none;rounded=1;sketch=0;orthogonalLoop=1;jettySize=auto;html=1;exitX=0.5;exitY=1;exitDx=0;exitDy=0;entryX=0.5;entryY=0;entryDx=0;entryDy=0;fontColor=#143642;strokeColor=#A8201A;fillColor=#FAE5C7;" edge="1" parent="1" source="xgy5c-ASIfdpQhYK_QIA-155" target="xgy5c-ASIfdpQhYK_QIA-152">
          <mxGeometry x="1960" y="1880" as="geometry" />
        </mxCell>
        <mxCell id="xgy5c-ASIfdpQhYK_QIA-155" value="5" style="ellipse;whiteSpace=wrap;html=1;aspect=fixed;fillColor=#f8cecc;strokeColor=#b85450;gradientColor=#ea6b66;" vertex="1" parent="1">
          <mxGeometry x="2040" y="1960" width="40" height="40" as="geometry" />
        </mxCell>
        <mxCell id="xgy5c-ASIfdpQhYK_QIA-156" style="rounded=1;sketch=0;orthogonalLoop=1;jettySize=auto;html=1;exitX=0.5;exitY=1;exitDx=0;exitDy=0;entryX=0.5;entryY=0;entryDx=0;entryDy=0;fontColor=#143642;strokeColor=#A8201A;fillColor=#FAE5C7;" edge="1" parent="1" target="xgy5c-ASIfdpQhYK_QIA-155">
          <mxGeometry x="1960" y="1880" as="geometry">
            <mxPoint x="2140" y="1920" as="sourcePoint" />
          </mxGeometry>
        </mxCell>
        <mxCell id="xgy5c-ASIfdpQhYK_QIA-157" value="16" style="ellipse;whiteSpace=wrap;html=1;aspect=fixed;fillColor=#f5f5f5;strokeColor=#666666;gradientColor=#b3b3b3;" vertex="1" parent="1">
          <mxGeometry x="2280" y="2120" width="40" height="40" as="geometry" />
        </mxCell>
        <mxCell id="xgy5c-ASIfdpQhYK_QIA-158" style="edgeStyle=none;rounded=1;sketch=0;orthogonalLoop=1;jettySize=auto;html=1;exitX=0.5;exitY=1;exitDx=0;exitDy=0;entryX=0.5;entryY=0;entryDx=0;entryDy=0;fontColor=#143642;strokeColor=#A8201A;fillColor=#FAE5C7;" edge="1" parent="1" source="xgy5c-ASIfdpQhYK_QIA-160" target="xgy5c-ASIfdpQhYK_QIA-161">
          <mxGeometry relative="1" as="geometry" />
        </mxCell>
        <mxCell id="xgy5c-ASIfdpQhYK_QIA-159" style="edgeStyle=none;rounded=1;sketch=0;orthogonalLoop=1;jettySize=auto;html=1;exitX=0.5;exitY=1;exitDx=0;exitDy=0;entryX=0.5;entryY=0;entryDx=0;entryDy=0;fontColor=#143642;strokeColor=#A8201A;fillColor=#FAE5C7;" edge="1" parent="1" source="xgy5c-ASIfdpQhYK_QIA-160" target="xgy5c-ASIfdpQhYK_QIA-177">
          <mxGeometry relative="1" as="geometry" />
        </mxCell>
        <mxCell id="xgy5c-ASIfdpQhYK_QIA-160" value="13" style="ellipse;whiteSpace=wrap;html=1;aspect=fixed;gradientColor=#b3b3b3;fillColor=#f5f5f5;strokeColor=#666666;" vertex="1" parent="1">
          <mxGeometry x="2200" y="1960" width="40" height="40" as="geometry" />
        </mxCell>
        <mxCell id="xgy5c-ASIfdpQhYK_QIA-161" value="11" style="ellipse;whiteSpace=wrap;html=1;aspect=fixed;fillColor=#f5f5f5;strokeColor=#666666;gradientColor=#b3b3b3;" vertex="1" parent="1">
          <mxGeometry x="2160" y="2040" width="40" height="40" as="geometry" />
        </mxCell>
        <mxCell id="xgy5c-ASIfdpQhYK_QIA-163" value="5" style="ellipse;whiteSpace=wrap;html=1;aspect=fixed;fillColor=#f8cecc;strokeColor=#b85450;gradientColor=#ea6b66;" vertex="1" parent="1">
          <mxGeometry x="2040" y="1960" width="40" height="40" as="geometry" />
        </mxCell>
        <mxCell id="xgy5c-ASIfdpQhYK_QIA-164" value="3" style="ellipse;whiteSpace=wrap;html=1;aspect=fixed;fillColor=#f5f5f5;strokeColor=#666666;gradientColor=#b3b3b3;" vertex="1" parent="1">
          <mxGeometry x="2000" y="2040" width="40" height="40" as="geometry" />
        </mxCell>
        <mxCell id="xgy5c-ASIfdpQhYK_QIA-165" value="8" style="ellipse;whiteSpace=wrap;html=1;aspect=fixed;fillColor=#f5f5f5;strokeColor=#666666;gradientColor=#b3b3b3;" vertex="1" parent="1">
          <mxGeometry x="2080" y="2040" width="40" height="40" as="geometry" />
        </mxCell>
        <mxCell id="xgy5c-ASIfdpQhYK_QIA-166" value="9" style="ellipse;whiteSpace=wrap;html=1;aspect=fixed;fillColor=#f8cecc;strokeColor=#b85450;gradientColor=#ea6b66;" vertex="1" parent="1">
          <mxGeometry x="2120" y="2120" width="40" height="40" as="geometry" />
        </mxCell>
        <mxCell id="xgy5c-ASIfdpQhYK_QIA-167" value="11" style="ellipse;whiteSpace=wrap;html=1;aspect=fixed;fillColor=#f5f5f5;strokeColor=#666666;gradientColor=#b3b3b3;" vertex="1" parent="1">
          <mxGeometry x="2120" y="1880" width="40" height="40" as="geometry" />
        </mxCell>
        <mxCell id="xgy5c-ASIfdpQhYK_QIA-168" value="5" style="ellipse;whiteSpace=wrap;html=1;aspect=fixed;fillColor=#f8cecc;strokeColor=#b85450;gradientColor=#ea6b66;" vertex="1" parent="1">
          <mxGeometry x="2040" y="1960" width="40" height="40" as="geometry" />
        </mxCell>
        <mxCell id="xgy5c-ASIfdpQhYK_QIA-169" value="3" style="ellipse;whiteSpace=wrap;html=1;aspect=fixed;fillColor=#f5f5f5;strokeColor=#666666;gradientColor=#b3b3b3;" vertex="1" parent="1">
          <mxGeometry x="2000" y="2040" width="40" height="40" as="geometry" />
        </mxCell>
        <mxCell id="xgy5c-ASIfdpQhYK_QIA-170" style="edgeStyle=none;rounded=0;orthogonalLoop=1;jettySize=auto;html=1;exitX=0.5;exitY=1;exitDx=0;exitDy=0;entryX=0.5;entryY=0;entryDx=0;entryDy=0;strokeColor=#A8201A;" edge="1" parent="1" source="xgy5c-ASIfdpQhYK_QIA-172" target="xgy5c-ASIfdpQhYK_QIA-149">
          <mxGeometry relative="1" as="geometry" />
        </mxCell>
        <mxCell id="xgy5c-ASIfdpQhYK_QIA-171" style="edgeStyle=none;rounded=0;orthogonalLoop=1;jettySize=auto;html=1;exitX=0.5;exitY=1;exitDx=0;exitDy=0;entryX=0.5;entryY=0;entryDx=0;entryDy=0;strokeColor=#A8201A;" edge="1" parent="1" source="xgy5c-ASIfdpQhYK_QIA-172" target="xgy5c-ASIfdpQhYK_QIA-173">
          <mxGeometry relative="1" as="geometry" />
        </mxCell>
        <mxCell id="xgy5c-ASIfdpQhYK_QIA-172" value="8" style="ellipse;whiteSpace=wrap;html=1;aspect=fixed;fillColor=#f5f5f5;strokeColor=#666666;gradientColor=#b3b3b3;" vertex="1" parent="1">
          <mxGeometry x="2080" y="2040" width="40" height="40" as="geometry" />
        </mxCell>
        <mxCell id="xgy5c-ASIfdpQhYK_QIA-173" value="9" style="ellipse;whiteSpace=wrap;html=1;aspect=fixed;fillColor=#f8cecc;strokeColor=#b85450;gradientColor=#ea6b66;" vertex="1" parent="1">
          <mxGeometry x="2120" y="2120" width="40" height="40" as="geometry" />
        </mxCell>
        <mxCell id="xgy5c-ASIfdpQhYK_QIA-174" value="14" style="ellipse;whiteSpace=wrap;html=1;aspect=fixed;fillColor=#f8cecc;strokeColor=#b85450;gradientColor=#ea6b66;" vertex="1" parent="1">
          <mxGeometry x="2200" y="2120" width="40" height="40" as="geometry" />
        </mxCell>
        <mxCell id="xgy5c-ASIfdpQhYK_QIA-175" style="edgeStyle=none;rounded=1;sketch=0;orthogonalLoop=1;jettySize=auto;html=1;exitX=0.5;exitY=1;exitDx=0;exitDy=0;entryX=0.5;entryY=0;entryDx=0;entryDy=0;fontColor=#143642;strokeColor=#A8201A;fillColor=#FAE5C7;" edge="1" parent="1" source="xgy5c-ASIfdpQhYK_QIA-177" target="xgy5c-ASIfdpQhYK_QIA-174">
          <mxGeometry relative="1" as="geometry" />
        </mxCell>
        <mxCell id="xgy5c-ASIfdpQhYK_QIA-176" style="edgeStyle=none;rounded=1;sketch=0;orthogonalLoop=1;jettySize=auto;html=1;exitX=0.5;exitY=1;exitDx=0;exitDy=0;entryX=0.5;entryY=0;entryDx=0;entryDy=0;fontColor=#143642;strokeColor=#A8201A;fillColor=#FAE5C7;" edge="1" parent="1" source="xgy5c-ASIfdpQhYK_QIA-177" target="xgy5c-ASIfdpQhYK_QIA-157">
          <mxGeometry relative="1" as="geometry" />
        </mxCell>
        <mxCell id="xgy5c-ASIfdpQhYK_QIA-177" value="15" style="ellipse;whiteSpace=wrap;html=1;aspect=fixed;fillColor=#f8cecc;strokeColor=#b85450;gradientColor=#ea6b66;" vertex="1" parent="1">
          <mxGeometry x="2240" y="2040" width="40" height="40" as="geometry" />
        </mxCell>
        <mxCell id="xgy5c-ASIfdpQhYK_QIA-179" value="&lt;font color=&quot;#143642&quot;&gt;&lt;b&gt;将13从红色转化黑色&lt;br&gt;&lt;/b&gt;&lt;/font&gt;" style="shape=callout;whiteSpace=wrap;html=1;perimeter=calloutPerimeter;rounded=1;position2=0;" vertex="1" parent="1">
          <mxGeometry x="2240" y="1900" width="120" height="75" as="geometry" />
        </mxCell>
        <mxCell id="xgy5c-ASIfdpQhYK_QIA-180" value="" style="html=1;shadow=0;dashed=0;align=center;verticalAlign=middle;shape=mxgraph.arrows2.arrow;dy=0.6;dx=40;notch=0;rounded=1;glass=0;sketch=0;fontColor=#143642;strokeColor=#0F8B8D;fillColor=#FAE5C7;direction=south;" vertex="1" parent="1">
          <mxGeometry x="2130" y="1790" width="20" height="70" as="geometry" />
        </mxCell>
        <mxCell id="xgy5c-ASIfdpQhYK_QIA-181" value="&lt;font color=&quot;#143642&quot;&gt;&lt;b&gt;将SIB的右子节点转化为黑色&lt;/b&gt;&lt;/font&gt;" style="shape=callout;whiteSpace=wrap;html=1;perimeter=calloutPerimeter;rounded=1;position2=0;" vertex="1" parent="1">
          <mxGeometry x="2310" y="2040" width="120" height="75" as="geometry" />
        </mxCell>
        <mxCell id="xgy5c-ASIfdpQhYK_QIA-182" value="" style="html=1;shadow=0;dashed=0;align=center;verticalAlign=middle;shape=mxgraph.arrows2.arrow;dy=0.6;dx=40;notch=0;rounded=1;glass=0;sketch=0;fontColor=#143642;strokeColor=#0F8B8D;fillColor=#FAE5C7;direction=west;" vertex="1" parent="1">
          <mxGeometry x="1905" y="2030" width="70" height="20" as="geometry" />
        </mxCell>
        <mxCell id="xgy5c-ASIfdpQhYK_QIA-184" value="7" style="ellipse;whiteSpace=wrap;html=1;aspect=fixed;fillColor=#f8cecc;strokeColor=#b85450;gradientColor=#ea6b66;" vertex="1" parent="1">
          <mxGeometry x="1580" y="2120" width="40" height="40" as="geometry" />
        </mxCell>
        <mxCell id="xgy5c-ASIfdpQhYK_QIA-185" value="3" style="ellipse;whiteSpace=wrap;html=1;aspect=fixed;fillColor=#f5f5f5;strokeColor=#666666;gradientColor=#b3b3b3;" vertex="1" parent="1">
          <mxGeometry x="1540" y="2040" width="40" height="40" as="geometry" />
        </mxCell>
        <mxCell id="xgy5c-ASIfdpQhYK_QIA-187" value="8" style="ellipse;whiteSpace=wrap;html=1;aspect=fixed;fillColor=#f5f5f5;strokeColor=#666666;gradientColor=#b3b3b3;" vertex="1" parent="1">
          <mxGeometry x="1620" y="2040" width="40" height="40" as="geometry" />
        </mxCell>
        <mxCell id="xgy5c-ASIfdpQhYK_QIA-188" style="edgeStyle=none;rounded=1;sketch=0;orthogonalLoop=1;jettySize=auto;html=1;exitX=0.5;exitY=1;exitDx=0;exitDy=0;entryX=0.5;entryY=0;entryDx=0;entryDy=0;fontColor=#143642;strokeColor=#A8201A;fillColor=#FAE5C7;" edge="1" parent="1" source="xgy5c-ASIfdpQhYK_QIA-190" target="xgy5c-ASIfdpQhYK_QIA-185">
          <mxGeometry x="1500" y="1880" as="geometry" />
        </mxCell>
        <mxCell id="xgy5c-ASIfdpQhYK_QIA-189" style="edgeStyle=none;rounded=1;sketch=0;orthogonalLoop=1;jettySize=auto;html=1;exitX=0.5;exitY=1;exitDx=0;exitDy=0;entryX=0.5;entryY=0;entryDx=0;entryDy=0;fontColor=#143642;strokeColor=#A8201A;fillColor=#FAE5C7;" edge="1" parent="1" source="xgy5c-ASIfdpQhYK_QIA-190" target="xgy5c-ASIfdpQhYK_QIA-187">
          <mxGeometry x="1500" y="1880" as="geometry" />
        </mxCell>
        <mxCell id="xgy5c-ASIfdpQhYK_QIA-190" value="5" style="ellipse;whiteSpace=wrap;html=1;aspect=fixed;fillColor=#f8cecc;strokeColor=#b85450;gradientColor=#ea6b66;" vertex="1" parent="1">
          <mxGeometry x="1580" y="1960" width="40" height="40" as="geometry" />
        </mxCell>
        <mxCell id="xgy5c-ASIfdpQhYK_QIA-191" style="rounded=1;sketch=0;orthogonalLoop=1;jettySize=auto;html=1;exitX=0.5;exitY=1;exitDx=0;exitDy=0;entryX=0.5;entryY=0;entryDx=0;entryDy=0;fontColor=#143642;strokeColor=#A8201A;fillColor=#FAE5C7;" edge="1" parent="1" target="xgy5c-ASIfdpQhYK_QIA-190">
          <mxGeometry x="1560" y="1880" as="geometry">
            <mxPoint x="1740" y="1920" as="sourcePoint" />
          </mxGeometry>
        </mxCell>
        <mxCell id="xgy5c-ASIfdpQhYK_QIA-192" value="16" style="ellipse;whiteSpace=wrap;html=1;aspect=fixed;fillColor=#f5f5f5;strokeColor=#666666;gradientColor=#b3b3b3;" vertex="1" parent="1">
          <mxGeometry x="1840" y="2040" width="40" height="40" as="geometry" />
        </mxCell>
        <mxCell id="xgy5c-ASIfdpQhYK_QIA-217" style="edgeStyle=none;rounded=0;orthogonalLoop=1;jettySize=auto;html=1;exitX=0.5;exitY=1;exitDx=0;exitDy=0;entryX=0.5;entryY=0;entryDx=0;entryDy=0;gradientColor=#ea6b66;fillColor=#f8cecc;strokeColor=#b85450;" edge="1" parent="1" source="xgy5c-ASIfdpQhYK_QIA-195" target="xgy5c-ASIfdpQhYK_QIA-196">
          <mxGeometry relative="1" as="geometry" />
        </mxCell>
        <mxCell id="xgy5c-ASIfdpQhYK_QIA-218" style="edgeStyle=none;rounded=0;orthogonalLoop=1;jettySize=auto;html=1;exitX=0.5;exitY=1;exitDx=0;exitDy=0;entryX=0.5;entryY=0;entryDx=0;entryDy=0;gradientColor=#ea6b66;fillColor=#f8cecc;strokeColor=#b85450;" edge="1" parent="1" source="xgy5c-ASIfdpQhYK_QIA-195" target="xgy5c-ASIfdpQhYK_QIA-208">
          <mxGeometry relative="1" as="geometry" />
        </mxCell>
        <mxCell id="xgy5c-ASIfdpQhYK_QIA-195" value="13" style="ellipse;whiteSpace=wrap;html=1;aspect=fixed;gradientColor=#b3b3b3;fillColor=#f5f5f5;strokeColor=#666666;" vertex="1" parent="1">
          <mxGeometry x="1760" y="2040" width="40" height="40" as="geometry" />
        </mxCell>
        <mxCell id="xgy5c-ASIfdpQhYK_QIA-196" value="11" style="ellipse;whiteSpace=wrap;html=1;aspect=fixed;fillColor=#f5f5f5;strokeColor=#666666;gradientColor=#b3b3b3;" vertex="1" parent="1">
          <mxGeometry x="1720" y="2120" width="40" height="40" as="geometry" />
        </mxCell>
        <mxCell id="xgy5c-ASIfdpQhYK_QIA-197" value="5" style="ellipse;whiteSpace=wrap;html=1;aspect=fixed;fillColor=#f8cecc;strokeColor=#b85450;gradientColor=#ea6b66;" vertex="1" parent="1">
          <mxGeometry x="1580" y="1960" width="40" height="40" as="geometry" />
        </mxCell>
        <mxCell id="xgy5c-ASIfdpQhYK_QIA-198" value="3" style="ellipse;whiteSpace=wrap;html=1;aspect=fixed;fillColor=#f5f5f5;strokeColor=#666666;gradientColor=#b3b3b3;" vertex="1" parent="1">
          <mxGeometry x="1540" y="2040" width="40" height="40" as="geometry" />
        </mxCell>
        <mxCell id="xgy5c-ASIfdpQhYK_QIA-199" value="8" style="ellipse;whiteSpace=wrap;html=1;aspect=fixed;fillColor=#f5f5f5;strokeColor=#666666;gradientColor=#b3b3b3;" vertex="1" parent="1">
          <mxGeometry x="1620" y="2040" width="40" height="40" as="geometry" />
        </mxCell>
        <mxCell id="xgy5c-ASIfdpQhYK_QIA-214" style="edgeStyle=none;rounded=0;orthogonalLoop=1;jettySize=auto;html=1;exitX=0.5;exitY=1;exitDx=0;exitDy=0;entryX=0.5;entryY=0;entryDx=0;entryDy=0;gradientColor=#ea6b66;fillColor=#f8cecc;strokeColor=#b85450;" edge="1" parent="1" source="xgy5c-ASIfdpQhYK_QIA-201" target="xgy5c-ASIfdpQhYK_QIA-211">
          <mxGeometry relative="1" as="geometry" />
        </mxCell>
        <mxCell id="xgy5c-ASIfdpQhYK_QIA-201" value="11" style="ellipse;whiteSpace=wrap;html=1;aspect=fixed;fillColor=#f5f5f5;strokeColor=#666666;gradientColor=#b3b3b3;" vertex="1" parent="1">
          <mxGeometry x="1720" y="1880" width="40" height="40" as="geometry" />
        </mxCell>
        <mxCell id="xgy5c-ASIfdpQhYK_QIA-202" value="5" style="ellipse;whiteSpace=wrap;html=1;aspect=fixed;fillColor=#f8cecc;strokeColor=#b85450;gradientColor=#ea6b66;" vertex="1" parent="1">
          <mxGeometry x="1580" y="1960" width="40" height="40" as="geometry" />
        </mxCell>
        <mxCell id="xgy5c-ASIfdpQhYK_QIA-203" value="3" style="ellipse;whiteSpace=wrap;html=1;aspect=fixed;fillColor=#f5f5f5;strokeColor=#666666;gradientColor=#b3b3b3;" vertex="1" parent="1">
          <mxGeometry x="1540" y="2040" width="40" height="40" as="geometry" />
        </mxCell>
        <mxCell id="xgy5c-ASIfdpQhYK_QIA-204" style="edgeStyle=none;rounded=0;orthogonalLoop=1;jettySize=auto;html=1;exitX=0.5;exitY=1;exitDx=0;exitDy=0;entryX=0.5;entryY=0;entryDx=0;entryDy=0;strokeColor=#A8201A;" edge="1" parent="1" source="xgy5c-ASIfdpQhYK_QIA-206" target="xgy5c-ASIfdpQhYK_QIA-184">
          <mxGeometry relative="1" as="geometry" />
        </mxCell>
        <mxCell id="xgy5c-ASIfdpQhYK_QIA-205" style="edgeStyle=none;rounded=0;orthogonalLoop=1;jettySize=auto;html=1;exitX=0.5;exitY=1;exitDx=0;exitDy=0;entryX=0.5;entryY=0;entryDx=0;entryDy=0;strokeColor=#A8201A;" edge="1" parent="1" source="xgy5c-ASIfdpQhYK_QIA-206" target="xgy5c-ASIfdpQhYK_QIA-207">
          <mxGeometry relative="1" as="geometry" />
        </mxCell>
        <mxCell id="xgy5c-ASIfdpQhYK_QIA-206" value="8" style="ellipse;whiteSpace=wrap;html=1;aspect=fixed;fillColor=#f5f5f5;strokeColor=#666666;gradientColor=#b3b3b3;" vertex="1" parent="1">
          <mxGeometry x="1620" y="2040" width="40" height="40" as="geometry" />
        </mxCell>
        <mxCell id="xgy5c-ASIfdpQhYK_QIA-207" value="9" style="ellipse;whiteSpace=wrap;html=1;aspect=fixed;fillColor=#f8cecc;strokeColor=#b85450;gradientColor=#ea6b66;" vertex="1" parent="1">
          <mxGeometry x="1660" y="2120" width="40" height="40" as="geometry" />
        </mxCell>
        <mxCell id="xgy5c-ASIfdpQhYK_QIA-208" value="14" style="ellipse;whiteSpace=wrap;html=1;aspect=fixed;fillColor=#f8cecc;strokeColor=#b85450;gradientColor=#ea6b66;" vertex="1" parent="1">
          <mxGeometry x="1800" y="2120" width="40" height="40" as="geometry" />
        </mxCell>
        <mxCell id="xgy5c-ASIfdpQhYK_QIA-215" style="edgeStyle=none;rounded=0;orthogonalLoop=1;jettySize=auto;html=1;exitX=0.5;exitY=1;exitDx=0;exitDy=0;entryX=0.5;entryY=0;entryDx=0;entryDy=0;gradientColor=#ea6b66;fillColor=#f8cecc;strokeColor=#b85450;" edge="1" parent="1" source="xgy5c-ASIfdpQhYK_QIA-211" target="xgy5c-ASIfdpQhYK_QIA-195">
          <mxGeometry relative="1" as="geometry" />
        </mxCell>
        <mxCell id="xgy5c-ASIfdpQhYK_QIA-216" style="edgeStyle=none;rounded=0;orthogonalLoop=1;jettySize=auto;html=1;exitX=0.5;exitY=1;exitDx=0;exitDy=0;entryX=0.5;entryY=0;entryDx=0;entryDy=0;gradientColor=#ea6b66;fillColor=#f8cecc;strokeColor=#b85450;" edge="1" parent="1" source="xgy5c-ASIfdpQhYK_QIA-211" target="xgy5c-ASIfdpQhYK_QIA-192">
          <mxGeometry relative="1" as="geometry" />
        </mxCell>
        <mxCell id="xgy5c-ASIfdpQhYK_QIA-211" value="15" style="ellipse;whiteSpace=wrap;html=1;aspect=fixed;fillColor=#f8cecc;strokeColor=#b85450;gradientColor=#ea6b66;" vertex="1" parent="1">
          <mxGeometry x="1800" y="1960" width="40" height="40" as="geometry" />
        </mxCell>
        <mxCell id="xgy5c-ASIfdpQhYK_QIA-212" value="&lt;font color=&quot;#143642&quot;&gt;&lt;b&gt;以13左旋&lt;br&gt;&lt;/b&gt;&lt;/font&gt;" style="shape=callout;whiteSpace=wrap;html=1;perimeter=calloutPerimeter;rounded=1;position2=0.58;" vertex="1" parent="1">
          <mxGeometry x="1870" y="1942.5" width="120" height="75" as="geometry" />
        </mxCell>
        <mxCell id="xgy5c-ASIfdpQhYK_QIA-219" value="5" style="ellipse;whiteSpace=wrap;html=1;aspect=fixed;fillColor=#f8cecc;strokeColor=#b85450;gradientColor=#ea6b66;" vertex="1" parent="1">
          <mxGeometry x="1580" y="1960" width="40" height="40" as="geometry" />
        </mxCell>
        <mxCell id="xgy5c-ASIfdpQhYK_QIA-220" value="3" style="ellipse;whiteSpace=wrap;html=1;aspect=fixed;fillColor=#f5f5f5;strokeColor=#666666;gradientColor=#b3b3b3;" vertex="1" parent="1">
          <mxGeometry x="1540" y="2040" width="40" height="40" as="geometry" />
        </mxCell>
        <mxCell id="xgy5c-ASIfdpQhYK_QIA-221" value="8" style="ellipse;whiteSpace=wrap;html=1;aspect=fixed;fillColor=#f5f5f5;strokeColor=#666666;gradientColor=#b3b3b3;" vertex="1" parent="1">
          <mxGeometry x="1620" y="2040" width="40" height="40" as="geometry" />
        </mxCell>
      </root>
    </mxGraphModel>
  </diagram>
  <diagram id="c1EbpiS4--iXrSXEBeDD" name="第 2 页">
    <mxGraphModel dx="1209" dy="663" grid="1" gridSize="10" guides="1" tooltips="1" connect="1" arrows="1" fold="1" page="1" pageScale="1" pageWidth="827" pageHeight="1169" math="0" shadow="0">
      <root>
        <mxCell id="_bc3uRsIe7ERREtuq2iT-0" />
        <mxCell id="_bc3uRsIe7ERREtuq2iT-1" parent="_bc3uRsIe7ERREtuq2iT-0" />
      </root>
    </mxGraphModel>
  </diagram>
</mxfile>
